<?xml version="1.0" encoding="utf-8"?><svg xmlns="http://www.w3.org/2000/svg" xmlns:xlink="http://www.w3.org/1999/xlink"><symbol viewBox="0 0 12 8" id="arrow" xmlns="http://www.w3.org/2000/svg"><path d="M1.41 0.296875L6 4.87687L10.59 0.296875L12 1.70687L6 7.70687L0 1.70687L1.41 0.296875Z"/></symbol><symbol id="arrow-left" viewBox="0 0 512 512" enable-background="new 0 0 512 512" xml:space="preserve" xmlns="http://www.w3.org/2000/svg"><g><g><polygon points="10,256 210,406 210,326 366,326 366,186 210,186 210,106   "/></g><g><rect x="394" y="186" width="40" height="140"/></g><g><rect x="462" y="186" width="40" height="140"/></g></g></symbol><symbol id="close" viewBox="0 0 378.303 378.303" xml:space="preserve" xmlns="http://www.w3.org/2000/svg"><polygon style="fill:#FF3501" points="378.303,28.285 350.018,0 189.151,160.867 28.285,0 0,28.285 160.867,189.151 0,350.018   28.285,378.302 189.151,217.436 350.018,378.302 378.303,350.018 217.436,189.151 "/></symbol></svg>