<?xml version="1.0" encoding="UTF-8"?>
<svg version="1.1" xmlns="http://www.w3.org/2000/svg" width="225" height="225">
<path d="M0 0 C74.25 0 148.5 0 225 0 C225 74.25 225 148.5 225 225 C150.75 225 76.5 225 0 225 C0 150.75 0 76.5 0 0 Z " fill="#FEFEFE" transform="translate(0,0)"/>
<path d="M0 0 C2.21694116 1.47429337 4.00852722 3.29368347 5.88671875 5.171875 C6.21671875 3.521875 6.54671875 1.871875 6.88671875 0.171875 C8.53671875 0.171875 10.18671875 0.171875 11.88671875 0.171875 C11.98601565 6.29161918 12.05838971 12.41088852 12.10644531 18.53125 C12.12649034 20.61076025 12.15373388 22.69021463 12.18847656 24.76953125 C12.23730823 27.76836987 12.25975903 30.76645963 12.27734375 33.765625 C12.29798889 34.68678101 12.31863403 35.60793701 12.33990479 36.55700684 C12.34198009 42.60388138 11.32021528 47.12428624 7.88671875 52.171875 C3.07762956 56.85765421 -1.65006794 58.4716623 -8.30078125 58.609375 C-14.71665459 58.51459505 -19.9776305 57.13038877 -25.11328125 53.171875 C-26.3828125 51 -26.3828125 51 -27.11328125 49.171875 C-25.79328125 48.181875 -24.47328125 47.191875 -23.11328125 46.171875 C-22.37078125 46.790625 -21.62828125 47.409375 -20.86328125 48.046875 C-14.14676291 53.2369119 -8.35195786 52.64283907 -0.17578125 51.734375 C3.2288088 49.99733926 3.54015975 49.5216429 4.82421875 46.109375 C6.08039373 41.39105921 6.11805745 37.02998779 5.88671875 32.171875 C4.97921875 32.97625 4.07171875 33.780625 3.13671875 34.609375 C-1.19770335 38.45124914 -5.89271718 38.57754454 -11.51171875 38.51953125 C-17.04656057 37.77989023 -20.79041675 34.59917618 -24.48828125 30.609375 C-28.37699344 24.77630671 -28.89430587 20.14324292 -28.11328125 13.171875 C-26.20534432 6.95303192 -22.86706616 3.47419641 -17.35546875 0.09375 C-12.30257398 -1.9837468 -5.08592707 -1.99300654 0 0 Z " fill="#204A59" transform="translate(49.11328125,101.828125)"/>
<path d="M0 0 C26 0 26 0 34 5 C37.0148739 9.33388123 37.6300729 12.779396 37 18 C35.37978406 22.50336945 33.46573754 26.83092748 29 29 C26.67105473 29.3627251 24.33767618 29.69862711 22 30 C22.4846875 30.77714355 22.969375 31.55428711 23.46875 32.35498047 C25.26138752 35.23397356 27.05000687 38.11538099 28.8359375 40.99853516 C29.61037578 42.24692707 30.38641209 43.49432911 31.1640625 44.74072266 C32.2802409 46.53030972 33.39066265 48.32335402 34.5 50.1171875 C35.50546875 51.73536377 35.50546875 51.73536377 36.53125 53.38623047 C38 56 38 56 38 58 C34.92578125 58.66796875 34.92578125 58.66796875 31 58 C28.13799295 54.78469787 26.21952319 51.08964463 24.1875 47.3125 C23.61580078 46.30509766 23.04410156 45.29769531 22.45507812 44.25976562 C19.99593649 39.88185778 17.87027998 35.67569996 16 31 C12.37 31 8.74 31 5 31 C5 39.91 5 48.82 5 58 C3.35 58 1.7 58 0 58 C0 38.86 0 19.72 0 0 Z " fill="#1F4958" transform="translate(78,82)"/>
<path d="M0 0 C27.475 0 27.475 0 33.9375 5.5 C37.20099559 9.808245 36.67971913 14.87537599 36 20 C34.70483671 24.19023419 33.22772986 26.09448536 29.5625 28.3125 C24.13412724 30.88383446 19.70466361 31.1303577 13.75 31.0625 C9.91375 31.0315625 9.91375 31.0315625 6 31 C6 39.91 6 48.82 6 58 C4.02 58 2.04 58 0 58 C0 38.86 0 19.72 0 0 Z " fill="#1E4958" transform="translate(127,82)"/>
<path d="M0 0 C2.31640625 2.140625 2.31640625 2.140625 4 4 C3.1875 5.9375 3.1875 5.9375 2 8 C1.01 8.33 0.02 8.66 -1 9 C-3.04119788 7.38405168 -5.04072937 5.7143618 -7 4 C-13.12196326 1.95934558 -20.41951428 2.12447806 -26.5 4.1875 C-32.74102077 8.71224006 -37.44877658 14.28820355 -39 22 C-39.86532323 29.16374153 -38.43158589 35.66255864 -35 42 C-30.57995477 47.15825738 -25.7867685 50.53938155 -18.94921875 51.37109375 C-11.29817429 51.52686352 -7.02787549 50.6153107 -1 46 C0.31956184 45.30647367 1.64997327 44.63217882 3 44 C3.99 44.66 4.98 45.32 6 46 C4.04088766 50.98683141 0.51451725 53.23993325 -4.16015625 55.5859375 C-11.50579327 58.63468914 -20.80245959 58.30987077 -28.3046875 55.96875 C-36.09731206 52.08323083 -41.42309194 45.88879723 -45 38 C-47.35532991 28.34314737 -46.7492061 18.53707731 -41.78125 9.875 C-32.04246348 -4.40855356 -15.1357559 -7.94811169 0 0 Z " fill="#234C5B" transform="translate(217,84)"/>
<path d="M0 0 C4.55628823 2.58690357 7.29503273 4.92565323 8.8828125 10.0859375 C9.55172875 14.79375315 9.37060652 18.09158816 7.2578125 22.3984375 C3.25835324 26.9241414 0.03732942 29.30418675 -6.0546875 29.7109375 C-10.8361448 29.52342937 -13.32750152 28.03958089 -16.7421875 24.7890625 C-20.14702785 20.57170343 -20.61368414 16.94008542 -20.49609375 11.625 C-19.883154 7.51767179 -18.09796555 4.90983249 -15.1171875 2.0859375 C-10.27776389 -1.17541319 -5.54502164 -2.39397613 0 0 Z " fill="#FBFBFB" transform="translate(47.1171875,105.9140625)"/>
<path d="M0 0 C1.46484375 1.23697917 2.9296875 2.47395833 4.39453125 3.7109375 C5.8655046 4.89201099 7.43037794 5.95358529 9 7 C9.67289063 8.01449219 10.34578125 9.02898437 11.0390625 10.07421875 C12.72637554 12.14581512 13.64867606 12.90658219 16.25683594 13.60009766 C18.98607752 13.84553305 21.63566465 13.86766717 24.375 13.8125 C25.75558594 13.85987305 25.75558594 13.85987305 27.1640625 13.90820312 C32.46570367 13.88169492 35.34409925 13.25860837 39.1640625 9.44921875 C40.13599655 8.32189402 41.09158066 7.17910608 42 6 C48.75 11.5 48.75 11.5 51 16 C48.36 18.64 45.72 21.28 43 24 C36.125 18.125 36.125 18.125 35 17 C31.78286544 16.61030101 28.549874 16.58178629 25.3125 16.5 C24.41337891 16.44585937 23.51425781 16.39171875 22.58789062 16.3359375 C17.48025539 16.18443944 17.48025539 16.18443944 13.109375 18.51245117 C11.61199513 20.27771304 10.31778086 22.0997392 9 24 C6.12374928 26.53383992 3.43152753 28.34215231 0 30 C-2.68997212 27.69235894 -5.35132333 25.35490573 -8 23 C-8.62777344 22.45214844 -9.25554688 21.90429688 -9.90234375 21.33984375 C-11.5625 19.8125 -11.5625 19.8125 -14 17 C-13.72454068 13.68135146 -12.39603979 12.03499009 -10.05859375 9.765625 C-9.18364258 8.90517578 -9.18364258 8.90517578 -8.29101562 8.02734375 C-7.67935547 7.44082031 -7.06769531 6.85429688 -6.4375 6.25 C-5.82197266 5.64800781 -5.20644531 5.04601562 -4.57226562 4.42578125 C-3.05485187 2.94365619 -1.52829404 1.4709033 0 0 Z " fill="#204C5B" transform="translate(16,70)"/>
<path d="M0 0 C4.021875 -0.0928125 4.021875 -0.0928125 8.125 -0.1875 C8.95789551 -0.21481201 9.79079102 -0.24212402 10.64892578 -0.27026367 C15.50273718 -0.3241177 18.81697656 0.27277043 23 3 C25.67991501 7.01987251 25.68445377 10.277269 25 15 C22.41177326 18.88234012 19.39743643 19.80303424 15 21 C12.32306285 21.13519885 9.79039849 21.19162022 7.125 21.125 C4.77375 21.08375 2.4225 21.0425 0 21 C0 14.07 0 7.14 0 0 Z " fill="#F6F7F8" transform="translate(83,87)"/>
<path d="M0 0 C2.35125 -0.061875 4.7025 -0.12375 7.125 -0.1875 C7.85348145 -0.21481201 8.58196289 -0.24212402 9.33251953 -0.27026367 C14.86285014 -0.34001154 18.87956482 0.95024599 22.875 4.8125 C24.39977526 7.77734078 24.40388958 9.70156847 24 13 C22.5644055 16.85816022 21.27902339 17.85015411 17.625 19.8125 C11.88773346 21.72492218 5.97029033 21.18657157 0 21 C0 14.07 0 7.14 0 0 Z " fill="#FAFAFA" transform="translate(133,87)"/>
<path d="M0 0 C2.02054804 1.64169528 4.02043058 3.30911778 6 5 C6 5.33 6 5.66 6 6 C5.154375 6.185625 4.30875 6.37125 3.4375 6.5625 C-1.09509046 8.45794692 -3.74687672 11.40039022 -7 15 C-6.04270084 16.12588014 -5.08412105 17.2506715 -4.125 18.375 C-3.32449219 19.31472656 -3.32449219 19.31472656 -2.5078125 20.2734375 C0.28766809 23.47448004 1.80420373 24.33750585 6 25 C4.68 26.65 3.36 28.3 2 30 C-2.59483289 28.56937438 -5.54739046 25.97021594 -8.875 22.625 C-9.38546875 22.14289063 -9.8959375 21.66078125 -10.421875 21.1640625 C-11.8671875 19.7265625 -11.8671875 19.7265625 -14 17 C-13.69167964 13.6813368 -12.40235239 12.04111883 -10.05859375 9.765625 C-9.18364258 8.90517578 -9.18364258 8.90517578 -8.29101562 8.02734375 C-7.67935547 7.44082031 -7.06769531 6.85429688 -6.4375 6.25 C-5.82197266 5.64800781 -5.20644531 5.04601562 -4.57226562 4.42578125 C-3.05485187 2.94365619 -1.52829404 1.4709033 0 0 Z " fill="#6FCACA" transform="translate(16,70)"/>
<path d="M0 0 C1.13199353 0.9080162 2.25532363 1.82683826 3.375 2.75 C4.00148438 3.26046875 4.62796875 3.7709375 5.2734375 4.296875 C7 6 7 6 9 10 C6.36 12.64 3.72 15.28 1 18 C-0.32 16.68 -1.64 15.36 -3 14 C-2.21625 13.731875 -1.4325 13.46375 -0.625 13.1875 C2.28114923 12.15185568 2.28114923 12.15185568 4 9 C2.68798827 7.43750191 2.68798827 7.43750191 1 6 C0.01 6 -0.98 6 -2 6 C-1.67 6.66 -1.34 7.32 -1 8 C-2.98 8 -4.96 8 -7 8 C-6.02133662 6.85373678 -5.04205413 5.70800212 -4.0625 4.5625 C-3.51722656 3.92441406 -2.97195312 3.28632812 -2.41015625 2.62890625 C-1.63204305 1.73008851 -0.84063472 0.84063472 0 0 Z " fill="#4EBFBE" transform="translate(58,76)"/>
<path d="M0 0 C3.24208567 0.35049575 4.61527704 0.56221181 6.8125 3.0625 C7.204375 3.701875 7.59625 4.34125 8 5 C4.730187 8.87533393 4.730187 8.87533393 1.4375 9.4375 C-1.38838048 8.93029068 -2.321769 8.29652664 -4 6 C-4 5.34 -4 4.68 -4 4 C-10.6 4 -17.2 4 -24 4 C-24 3.67 -24 3.34 -24 3 C-11.625 2.505 -11.625 2.505 1 2 C0.67 1.34 0.34 0.68 0 0 Z " fill="#2F6772" transform="translate(55,81)"/>
<path d="M0 0 C2.02054804 1.64169528 4.02043058 3.30911778 6 5 C6 5.33 6 5.66 6 6 C5.154375 6.185625 4.30875 6.37125 3.4375 6.5625 C-0.57752453 8.24151026 -2.66787245 10.3868819 -5.58203125 13.5390625 C-6.04996094 14.02117187 -6.51789062 14.50328125 -7 15 C-7.33 15 -7.66 15 -8 15 C-8.1875 12.6875 -8.1875 12.6875 -8 10 C-6.6875 8.5 -6.6875 8.5 -5 7 C-3.98812105 5.34051852 -2.9873454 3.67419438 -2 2 C-1.34 1.34 -0.68 0.68 0 0 Z " fill="#57C1C1" transform="translate(16,70)"/>
<path d="M0 0 C4.62 0 9.24 0 14 0 C12.02 2.31 10.04 4.62 8 7 C4 5 4 5 0 0 Z " fill="#0CA5A4" transform="translate(17,86)"/>
<path d="M0 0 C0.721875 0.639375 1.44375 1.27875 2.1875 1.9375 C4.98191184 3.98673535 6.61663274 4.61332946 10 5 C8.68 6.65 7.36 8.3 6 10 C2.62496331 8.8141763 0.35277269 7.72426311 -2 5 C-1.34 3.35 -0.68 1.7 0 0 Z " fill="#48C2C0" transform="translate(12,90)"/>
<path d="M0 0 C1.32 0.99 2.64 1.98 4 3 C2.61811547 6.21043882 1.07578097 8.04936365 -1.625 10.25 C-2.25664063 10.77078125 -2.88828125 11.2915625 -3.5390625 11.828125 C-4.02117188 12.21484375 -4.50328125 12.6015625 -5 13 C-5.99 11.68 -6.98 10.36 -8 9 C-7.21625 8.71125 -6.4325 8.4225 -5.625 8.125 C-2.90328368 7.15087746 -2.90328368 7.15087746 -1 5 C-0.35232207 2.42938689 -0.35232207 2.42938689 0 0 Z " fill="#50C4C2" transform="translate(63,81)"/>
<path d="M0 0 C3.71860179 1.53873177 4.35633541 2.47511388 7 6 C3.04 6 -0.92 6 -5 6 C-3.35 4.02 -1.7 2.04 0 0 Z " fill="#02B3AF" transform="translate(23,78)"/>
<path d="M0 0 C0.66 0.33 1.32 0.66 2 1 C1.27683594 1.65355469 1.27683594 1.65355469 0.5390625 2.3203125 C-3.32436286 5.96297069 -5.82400746 8.64270063 -7 14 C-7.66 14 -8.32 14 -9 14 C-7.74942129 8.31555133 -6.02339363 5.22456331 -2 1 C-1.34 0.67 -0.68 0.34 0 0 Z " fill="#295260" transform="translate(30,103)"/>
<path d="M0 0 C1.9375 0.8125 1.9375 0.8125 4 2 C4.33 2.99 4.66 3.98 5 5 C4.01 5.99 3.02 6.98 2 8 C0.4375 6.8125 0.4375 6.8125 -1 5 C-0.6875 2.3125 -0.6875 2.3125 0 0 Z " fill="#61C7C6" transform="translate(7,86)"/>
<path d="M0 0 C2.97 0.495 2.97 0.495 6 1 C4.68 2.65 3.36 4.3 2 6 C1.01 5.67 0.02 5.34 -1 5 C-0.67 3.35 -0.34 1.7 0 0 Z " fill="#0FB9B5" transform="translate(16,94)"/>
<path d="M0 0 C1.32 0.99 2.64 1.98 4 3 C3.34 4.32 2.68 5.64 2 7 C1.01 6.67 0.02 6.34 -1 6 C-0.67 4.02 -0.34 2.04 0 0 Z " fill="#6CC9C8" transform="translate(63,81)"/>
<path d="M0 0 C1.65 1.65 3.3 3.3 5 5 C3.02 5.33 1.04 5.66 -1 6 C-1.042721 4.33388095 -1.04063832 2.66617115 -1 1 C-0.67 0.67 -0.34 0.34 0 0 Z " fill="#1FBBB8" transform="translate(17,71)"/>
<path d="M0 0 C1.32 0 2.64 0 4 0 C3.34 1.32 2.68 2.64 2 4 C0.68 4 -0.64 4 -2 4 C-1.34 2.68 -0.68 1.36 0 0 Z " fill="#0BAFAC" transform="translate(24,88)"/>
<path d="M0 0 C1 2 1 2 0.1875 5.5625 C-1 9 -1 9 -3 10 C-3.36629408 5.72656908 -2.40814077 3.51187196 0 0 Z " fill="#43BDBC" transform="translate(16,70)"/>
</svg>
