<?xml version="1.0" encoding="UTF-8"?>
<svg version="1.1" xmlns="http://www.w3.org/2000/svg" width="1024" height="1024">
<path d="M0 0 C0.73734375 0.59296875 1.4746875 1.1859375 2.234375 1.796875 C18.53287009 15.39768815 28.89057321 36.63856433 31.6875 57.515625 C32.59012384 67.57988087 32.27774141 77.27527389 30.4375 87.23046875 C30.01893893 89.88010984 29.96856013 92.32452317 30 95 C30.63164063 95.35078613 31.26328125 95.70157227 31.9140625 96.06298828 C45.66702135 103.70985139 59.33369051 111.48090039 72.91015625 119.4375 C79.21570419 123.1321331 85.54294436 126.78852681 91.875 130.4375 C93.49523071 131.37130493 93.49523071 131.37130493 95.14819336 132.32397461 C97.33796334 133.58576826 99.52782355 134.84740534 101.71777344 136.10888672 C107.14659942 139.23680148 112.57319281 142.36858448 118 145.5 C120.16665583 146.75001879 122.3333225 148.00001878 124.5 149.25 C137.5 156.75 150.5 164.25 163.5 171.75 C164.57266113 172.36883057 165.64532227 172.98766113 166.75048828 173.62524414 C168.91557071 174.87435518 171.08060982 176.12354129 173.24560547 177.37280273 C178.68615706 180.51202309 184.12747216 183.64990563 189.5703125 186.78515625 C204.07491223 195.14258899 218.54958134 203.54924384 233 212 C233.43570313 211.61835693 233.87140625 211.23671387 234.3203125 210.84350586 C250.10195217 197.14772414 269.57959188 185.91965974 291 185 C292.06089844 184.9484375 293.12179687 184.896875 294.21484375 184.84375 C320.2401562 184.18833814 343.90167271 193.06798278 363 211 C381.40366078 230.60064685 389.71644554 254.48036789 388.93896484 281.08886719 C387.58363507 304.67737268 376.57756392 326.39817899 359.44873047 342.45410156 C349.6375185 351.12216948 333.42995482 362 320 362 C320 440.54 320 519.08 320 600 C323.3 600.66 326.6 601.32 330 602 C332.7735665 603.12849984 335.30779982 604.2440829 337.9375 605.625 C338.62497314 605.98053955 339.31244629 606.3360791 340.02075195 606.70239258 C361.66698073 618.16692356 377.62858496 636.58027503 385 660 C387.47857747 668.8115225 388.52226357 677.10745426 388.4375 686.25 C388.42847656 687.42804199 388.41945313 688.60608398 388.41015625 689.81982422 C387.90671233 715.33114547 377.43636218 736.60546798 359.0703125 754.33203125 C340.91368367 770.58025214 317.27462139 778.06691046 293.078125 777.13183594 C271.08362045 775.73650788 251.89350438 767.00439829 235.98828125 751.84765625 C233.93619725 749.84186548 233.93619725 749.84186548 231 748 C230.34854004 748.37584229 229.69708008 748.75168457 229.02587891 749.13891602 C227.04313693 750.28280562 225.06038893 751.42668478 223.07763672 752.57055664 C220.74328358 753.91732423 218.40896765 755.26415607 216.07470703 756.61108398 C210.16021511 760.02377298 204.24511559 763.43539406 198.328125 766.84375 C187.91019664 772.84647607 177.50326743 778.86642887 167.125 784.9375 C157.85500223 790.35921178 148.54168248 795.70204915 139.21154785 801.01922607 C130.0871716 806.22045129 120.99867226 811.48027878 111.93310547 816.78344727 C104.67788243 821.02617291 97.40643928 825.23993243 90.125 829.4375 C88.50875732 830.36937134 88.50875732 830.36937134 86.85986328 831.32006836 C81.35861973 834.49077018 75.85560736 837.65838267 70.3515625 840.82421875 C56.51178401 848.78973485 42.72599833 856.83989191 29 865 C29.13712402 865.82274414 29.27424805 866.64548828 29.41552734 867.49316406 C33.80153488 893.80920928 32.94867186 918.75429012 18 942 C15.46554771 945.45376264 12.76696977 948.73148173 10 952 C9.54238281 952.60328125 9.08476563 953.2065625 8.61328125 953.828125 C-3.91965546 969.93652414 -25.47441415 979.11762263 -45.0625 982.25 C-68.65185176 985.16934519 -92.6332471 980.05689469 -111.75 965.5625 C-113.17604221 964.3862754 -114.59281132 963.19871628 -116 962 C-116.73734375 961.40703125 -117.4746875 960.8140625 -118.234375 960.203125 C-135.45554656 945.83235425 -145.97896848 923.13154272 -148 901 C-148.69468961 889.31215192 -147.22694634 878.45286689 -145 867 C-145.66386719 866.75765625 -146.32773437 866.5153125 -147.01171875 866.265625 C-150.76693485 864.67518053 -154.25863606 862.74391054 -157.8125 860.75 C-158.98232422 860.09680786 -158.98232422 860.09680786 -160.17578125 859.43041992 C-168.73353842 854.62754585 -177.19617718 849.66206012 -185.6640625 844.703125 C-192.05281992 840.96365411 -198.46116076 837.25874966 -204.875 833.5625 C-205.95458984 832.94028564 -207.03417969 832.31807129 -208.14648438 831.67700195 C-210.3368252 830.41488483 -212.52725502 829.15292215 -214.71777344 827.89111328 C-220.14659942 824.76319852 -225.57319281 821.63141552 -231 818.5 C-233.16665583 817.24998121 -235.3333225 815.99998122 -237.5 814.75 C-302.5 777.25 -302.5 777.25 -305.75537109 775.37109375 C-307.90320126 774.13249553 -310.05195218 772.89549248 -312.20166016 771.66015625 C-317.29872904 768.72850879 -322.38457465 765.78099191 -327.43914795 762.7767334 C-329.83597362 761.35345616 -332.23806208 759.9392002 -334.640625 758.52563477 C-336.34116069 757.52001111 -338.03395799 756.50133823 -339.7265625 755.48242188 C-340.75265625 754.87978516 -341.77875 754.27714844 -342.8359375 753.65625 C-343.73876465 753.11806641 -344.6415918 752.57988281 -345.57177734 752.02539062 C-347.90424715 750.80886423 -347.90424715 750.80886423 -350.20825195 751.23828125 C-352.58660104 752.24937938 -353.98043924 753.67877984 -355.8125 755.5 C-372.81594094 770.95263851 -395.3312842 777.64304282 -418.05078125 777.24609375 C-441.80119685 775.76609753 -462.10397817 766.86733589 -479 750 C-479.76957031 749.24203125 -480.53914063 748.4840625 -481.33203125 747.703125 C-489.68334003 738.99613868 -495.10543578 728.93250861 -499.375 717.75 C-499.61371826 717.12528809 -499.85243652 716.50057617 -500.09838867 715.85693359 C-503.43921405 706.58961689 -504.36428057 697.56279414 -504.3125 687.75 C-504.30758545 686.6475293 -504.3026709 685.54505859 -504.29760742 684.40917969 C-503.92341225 658.34984387 -492.46571526 636.66263986 -474.04296875 618.671875 C-463.56982124 609.16268244 -449.96904616 601.99557802 -436 600 C-436 521.46 -436 442.92 -436 362 C-438.31 361.67 -440.62 361.34 -443 361 C-445.641113 360.05380687 -448.13773811 359.08041054 -450.6875 357.9375 C-451.73296997 357.47114136 -451.73296997 357.47114136 -452.79956055 356.99536133 C-475.86688472 346.38571412 -491.16424426 327.92653612 -500.31640625 304.65234375 C-508.13229769 281.37771501 -505.79568073 256.57379138 -495.76171875 234.3828125 C-484.08983458 211.97072449 -465.17495402 196.45441797 -441.3125 188.625 C-415.26467393 181.3841529 -390.59861542 185.07185621 -367.15234375 198.03125 C-362.03631321 201.22639175 -357.55945505 205.07232253 -353 209 C-351.67152411 210.00644403 -350.33896204 211.00754928 -349 212 C-348.40912598 211.65445068 -347.81825195 211.30890137 -347.20947266 210.95288086 C-332.2626159 202.21500517 -317.28476261 193.53305526 -302.28222656 184.89111328 C-296.85340058 181.76319852 -291.42680719 178.63141552 -286 175.5 C-283.83334417 174.24998121 -281.6666775 172.99998122 -279.5 171.75 C-278.4275 171.13125 -277.355 170.5125 -276.25 169.875 C-214.5 134.25 -214.5 134.25 -211.24902344 132.37451172 C-209.08552524 131.12628966 -206.92211357 129.87791761 -204.75878906 128.62939453 C-199.29434983 125.47594744 -193.82836355 122.32523904 -188.359375 119.1796875 C-186.15616335 117.91160887 -183.95303763 116.64338094 -181.75 115.375 C-180.68458984 114.76197021 -179.61917969 114.14894043 -178.52148438 113.51733398 C-173.17600591 110.434693 -167.84820041 107.32601637 -162.546875 104.16796875 C-161.52754883 103.56098145 -160.50822266 102.95399414 -159.45800781 102.32861328 C-157.52780456 101.17616278 -155.59995149 100.01976421 -153.67480469 98.85888672 C-152.39718262 98.09535889 -152.39718262 98.09535889 -151.09375 97.31640625 C-150.34802734 96.86724854 -149.60230469 96.41809082 -148.83398438 95.95532227 C-147 95 -147 95 -145 95 C-145.2165625 93.88625 -145.433125 92.7725 -145.65625 91.625 C-150.62923089 64.91071297 -147.61786753 39.81227867 -132 17 C-116.95932219 -3.34414366 -95.94726134 -16.37230795 -70.875 -20.3359375 C-45.29294129 -23.71642383 -19.66376562 -16.75061516 0 0 Z M6 132 C4.66651351 134.90107628 4.66651351 134.90107628 5.94946289 137.25463867 C6.4521167 138.1335376 6.95477051 139.01243652 7.47265625 139.91796875 C8.31654907 141.40961548 8.31654907 141.40961548 9.17749023 142.93139648 C9.79954346 144.00591064 10.42159668 145.0804248 11.0625 146.1875 C11.69937744 147.30519775 12.33625488 148.42289551 12.99243164 149.57446289 C14.98243419 153.057151 16.98813469 156.52990307 19 160 C19.59393555 161.02544922 20.18787109 162.05089844 20.79980469 163.10742188 C23.66686379 168.04883478 26.54808329 172.98178812 29.4375 177.91015625 C33.1321331 184.21570419 36.78852681 190.54294436 40.4375 196.875 C41.06003662 197.95515381 41.68257324 199.03530762 42.32397461 200.14819336 C43.58576826 202.33796334 44.84740534 204.52782355 46.10888672 206.71777344 C49.23680148 212.14659942 52.36858448 217.57319281 55.5 223 C56.75001879 225.16665583 58.00001878 227.3333225 59.25 229.5 C59.86875 230.5725 60.4875 231.645 61.125 232.75 C81.75 268.5 81.75 268.5 83.62524414 271.75048828 C84.87435518 273.91557071 86.12354129 276.08060982 87.37280273 278.24560547 C90.51202309 283.68615706 93.64990563 289.12747216 96.78515625 294.5703125 C102.80747329 305.02206199 108.84669337 315.46299548 114.9375 325.875 C120.35921178 335.14499777 125.70204915 344.45831752 131.01922607 353.78845215 C136.22045129 362.9128284 141.48027878 372.00132774 146.78344727 381.06689453 C152.93766742 391.59084625 159.02369996 402.15380137 165.10888672 412.71777344 C168.23680148 418.14659942 171.36858448 423.57319281 174.5 429 C175.75001879 431.16665583 177.00001878 433.3333225 178.25 435.5 C178.86875 436.5725 179.4875 437.645 180.125 438.75 C202 476.66666667 223.875 514.58333333 245.75 552.5 C246.36987793 553.57443359 246.98975586 554.64886719 247.62841797 555.75585938 C248.86710002 557.90295136 250.1057079 560.05008614 251.34423828 562.19726562 C254.2853335 567.29588809 257.22721413 572.39405296 260.17169189 577.49072266 C261.56958601 579.91047665 262.96706089 582.33047263 264.36450195 584.75048828 C265.35652324 586.46801052 266.34915429 588.18518052 267.34179688 589.90234375 C268.23608398 591.45115234 268.23608398 591.45115234 269.1484375 593.03125 C269.67614746 593.94455078 270.20385742 594.85785156 270.74755859 595.79882812 C271.53336511 597.17988691 272.28939248 598.57878495 273 600 C274.32 600 275.64 600 277 600 C277 521.46 277 442.92 277 362 C270.73 359.69 264.46 357.38 258 355 C234.88282888 341.62642993 219.5110884 323.08856028 211.96484375 297.48828125 C208.39063388 282.37685442 208.97964824 266.15713454 212 251 C205.23385809 246.29701879 198.21427503 242.22230179 191 238.25 C183.81107379 234.25824176 176.63363437 230.26001356 169.5625 226.0625 C162.59230165 221.92682031 155.58498988 217.85878933 148.5625 213.8125 C147.45527588 213.17449463 146.34805176 212.53648926 145.20727539 211.87915039 C142.93662932 210.57110523 140.66587642 209.26324552 138.39501953 207.95556641 C132.9283002 204.80667946 127.46425113 201.65316736 122 198.5 C119.83334689 197.2499765 117.66668021 195.99997653 115.5 194.75 C102.5 187.25 89.5 179.75 76.5 172.25 C75.42733887 171.63116943 74.35467773 171.01233887 73.24951172 170.37475586 C71.08442929 169.12564482 68.91939018 167.87645871 66.75439453 166.62719727 C61.31384294 163.48797691 55.87252784 160.35009437 50.4296875 157.21484375 C48.24474762 155.95580561 46.05985151 154.69669149 43.875 153.4375 C42.81547119 152.82704834 41.75594238 152.21659668 40.66430664 151.58764648 C35.12158455 148.39058916 29.5875513 145.17944404 24.06640625 141.9453125 C22.95346191 141.29377197 21.84051758 140.64223145 20.69384766 139.97094727 C18.56082811 138.72084876 16.42894736 137.46880464 14.29833984 136.21459961 C13.35297363 135.6603833 12.40760742 135.10616699 11.43359375 134.53515625 C10.59884521 134.044104 9.76409668 133.55305176 8.90405273 133.04711914 C7.21612506 131.91968668 7.21612506 131.91968668 6 132 Z M-127.28515625 134.3515625 C-128.19563721 134.8657373 -129.10611816 135.37991211 -130.04418945 135.90966797 C-131.53825317 136.75875732 -131.53825317 136.75875732 -133.0625 137.625 C-134.09528076 138.21039551 -135.12806152 138.79579102 -136.19213867 139.39892578 C-144.43248725 144.08189052 -152.62727328 148.8404567 -160.80737305 153.62768555 C-171.41643305 159.83630459 -182.0663474 165.97332367 -192.71777344 172.10888672 C-198.14659942 175.23680148 -203.57319281 178.36858448 -209 181.5 C-211.16665583 182.75001879 -213.3333225 184.00001878 -215.5 185.25 C-216.5725 185.86875 -217.645 186.4875 -218.75 187.125 C-239.33333333 199 -259.91666667 210.875 -280.5 222.75 C-281.57443359 223.36987793 -282.64886719 223.98975586 -283.75585938 224.62841797 C-285.90295136 225.86710002 -288.05008614 227.1057079 -290.19726562 228.34423828 C-295.29588809 231.2853335 -300.39405296 234.22721413 -305.49072266 237.17169189 C-307.91047665 238.56958601 -310.33047263 239.96706089 -312.75048828 241.36450195 C-314.46801052 242.35652324 -316.18518052 243.34915429 -317.90234375 244.34179688 C-318.93488281 244.93798828 -319.96742188 245.53417969 -321.03125 246.1484375 C-322.40120117 246.94000244 -322.40120117 246.94000244 -323.79882812 247.74755859 C-325.17988691 248.53336511 -326.57878495 249.28939248 -328 250 C-327.855625 250.75539063 -327.71125 251.51078125 -327.5625 252.2890625 C-323.1106129 278.69122628 -326.12883187 305.13193438 -341.8125 327.375 C-355.32600511 345.64103896 -371.84272681 354.9475756 -393 362 C-393 440.54 -393 519.08 -393 600 C-391.68 600 -390.36 600 -389 600 C-388.6282666 599.33170166 -388.2565332 598.66340332 -387.87353516 597.97485352 C-375.29976856 575.3905088 -375.29976856 575.3905088 -368.88989258 564.5859375 C-365.14775591 558.27328523 -361.47618322 551.92096234 -357.8125 545.5625 C-356.85549194 543.90166382 -356.85549194 543.90166382 -355.87915039 542.20727539 C-354.57110523 539.93662932 -353.26324552 537.66587642 -351.95556641 535.39501953 C-348.80667946 529.9283002 -345.65316736 524.46425113 -342.5 519 C-341.2499765 516.83334689 -339.99997653 514.66668021 -338.75 512.5 C-336.25 508.16666667 -333.75 503.83333333 -331.25 499.5 C-330.63116943 498.42733887 -330.01233887 497.35467773 -329.37475586 496.24951172 C-328.12564482 494.08442929 -326.87645871 491.91939018 -325.62719727 489.75439453 C-322.48797691 484.31384294 -319.35009437 478.87252784 -316.21484375 473.4296875 C-310.19252671 462.97793801 -304.15330663 452.53700452 -298.0625 442.125 C-292.98724877 433.44737759 -287.97741233 424.73394432 -283 416 C-277.4599827 406.27884383 -271.86625191 396.59105342 -266.21655273 386.93310547 C-260.06233258 376.40915375 -253.97630004 365.84619863 -247.89111328 355.28222656 C-244.76319852 349.85340058 -241.63141552 344.42680719 -238.5 339 C-237.24998121 336.83334417 -235.99998122 334.6666775 -234.75 332.5 C-207.25 284.83333333 -179.75 237.16666667 -152.25 189.5 C-151.63044434 188.4260498 -151.01088867 187.35209961 -150.37255859 186.24560547 C-149.13088473 184.0934787 -147.88902478 181.94145927 -146.64697266 179.78955078 C-143.73833177 174.74969023 -140.83148102 169.70882508 -137.93145752 164.66400146 C-136.90724335 162.88250422 -135.88242349 161.10135678 -134.85742188 159.3203125 C-133.57366625 157.08923375 -132.29104061 154.85750427 -131.00976562 152.625 C-130.42646484 151.61179688 -129.84316406 150.59859375 -129.2421875 149.5546875 C-128.69401367 148.60045898 -128.14583984 147.64623047 -127.58105469 146.66308594 C-125.7605017 143.59659551 -123.80378873 140.64115614 -121.75439453 137.72314453 C-120.76859541 135.47143897 -121.20236481 134.27086304 -122 132 C-123.92344732 132 -125.66015813 133.43269668 -127.28515625 134.3515625 Z M-83 156 C-90.78063587 169.14469778 -98.42193456 182.36809058 -106.04443359 195.60498047 C-109.19332054 201.0716998 -112.34683264 206.53574887 -115.5 212 C-116.7500235 214.16665311 -118.00002347 216.33331979 -119.25 218.5 C-131.75 240.16666667 -144.25 261.83333333 -156.75 283.5 C-157.36883057 284.57266113 -157.98766113 285.64532227 -158.62524414 286.75048828 C-159.87435518 288.91557071 -161.12354129 291.08060982 -162.37280273 293.24560547 C-165.51202309 298.68615706 -168.64990563 304.12747216 -171.78515625 309.5703125 C-177.80747329 320.02206199 -183.84669337 330.46299548 -189.9375 340.875 C-195.01275123 349.55262241 -200.02258767 358.26605568 -205 367 C-210.5400173 376.72115617 -216.13374809 386.40894658 -221.78344727 396.06689453 C-227.93766742 406.59084625 -234.02369996 417.15380137 -240.10888672 427.71777344 C-243.23680148 433.14659942 -246.36858448 438.57319281 -249.5 444 C-250.75001879 446.16665583 -252.00001878 448.3333225 -253.25 450.5 C-275.75 489.5 -298.25 528.5 -320.75 567.5 C-321.36955566 568.5739502 -321.98911133 569.64790039 -322.62744141 570.75439453 C-323.86911527 572.9065213 -325.11097522 575.05854073 -326.35302734 577.21044922 C-329.26166823 582.25030977 -332.16851898 587.29117492 -335.06854248 592.33599854 C-336.09275665 594.11749578 -337.11757651 595.89864322 -338.14257812 597.6796875 C-339.42633375 599.91076625 -340.70895939 602.14249573 -341.99023438 604.375 C-342.57353516 605.38820313 -343.15683594 606.40140625 -343.7578125 607.4453125 C-344.30469727 608.39954102 -344.85158203 609.35376953 -345.41503906 610.33691406 C-347.24969323 613.41954001 -349.24361879 616.36886194 -351.34326172 619.27685547 C-352.2392203 621.06055037 -352.2392203 621.06055037 -351.22558594 623.10253906 C-349.8107721 625.292964 -348.19716364 627.00927867 -346.375 628.875 C-338.66854895 637.40664272 -333.84201665 647.50595331 -330.0078125 658.2578125 C-328.96063795 661.26408916 -328.96063795 661.26408916 -327 665 C-149.46 665 28.08 665 211 665 C212.32 661.7 213.64 658.4 215 655 C220.35003976 643.23216045 226.28544018 631.80381984 236 623 C234.70891809 619.60997279 233.24218459 616.47839169 231.453125 613.32421875 C230.94539551 612.42662842 230.43766602 611.52903809 229.91455078 610.60424805 C229.09059814 609.16045776 229.09059814 609.16045776 228.25 607.6875 C227.67362793 606.67276611 227.09725586 605.65803223 226.50341797 604.61254883 C221.26959599 595.4219122 215.93975958 586.28811786 210.59765625 577.16015625 C204.98321325 567.56057762 199.4419968 557.91864049 193.89111328 548.28222656 C190.76319852 542.85340058 187.63141552 537.42680719 184.5 532 C183.24998121 529.83334417 181.99998122 527.6666775 180.75 525.5 C179.821875 523.89125 179.821875 523.89125 178.875 522.25 C98.25 382.5 98.25 382.5 96.37475586 379.24951172 C95.12564482 377.08442929 93.87645871 374.91939018 92.62719727 372.75439453 C89.48797691 367.31384294 86.35009437 361.87252784 83.21484375 356.4296875 C77.19252671 345.97793801 71.15330663 335.53700452 65.0625 325.125 C59.64078822 315.85500223 54.29795085 306.54168248 48.98077393 297.21154785 C43.77954871 288.0871716 38.51972122 278.99867226 33.21655273 269.93310547 C27.06233258 259.40915375 20.97630004 248.84619863 14.89111328 238.28222656 C11.76319852 232.85340058 8.63141552 227.42680719 5.5 222 C4.24998121 219.83334417 2.99998122 217.6666775 1.75 215.5 C1.13125 214.4275 0.5125 213.355 -0.125 212.25 C-5.75 202.5 -5.75 202.5 -7.62744141 199.24389648 C-8.86714007 197.09632463 -10.10897285 194.94998317 -11.35302734 192.80493164 C-14.29883723 187.71963539 -17.22074866 182.62425028 -20.06854248 177.48348999 C-21.4188357 175.04909282 -22.78129427 172.62160968 -24.14477539 170.19458008 C-25.1052331 168.47293272 -26.04793818 166.7414199 -26.99023438 165.00976562 C-27.86518555 163.45612305 -27.86518555 163.45612305 -28.7578125 161.87109375 C-29.51795654 160.49328735 -29.51795654 160.49328735 -30.29345703 159.08764648 C-31.85498361 156.79297956 -31.85498361 156.79297956 -34.54760742 156.17431641 C-37.30763688 155.97813313 -39.48658865 156.3411949 -42.1875 156.9375 C-55.7680667 159.38700099 -69.45824167 158.06631735 -83 156 Z M-327 709 C-327.33 709.99 -327.66 710.98 -328 712 C-327.2879541 712.40613525 -326.5759082 712.81227051 -325.84228516 713.23071289 C-309.60954545 722.49191534 -293.39940195 731.7907986 -277.21777344 741.14111328 C-271.81329355 744.26324605 -266.40652588 747.38141204 -261 750.5 C-258.8333225 751.74998122 -256.66665583 752.99998121 -254.5 754.25 C-253.4275 754.86875 -252.355 755.4875 -251.25 756.125 C-189.5 791.75 -189.5 791.75 -186.2487793 793.62573242 C-184.08621417 794.8733474 -181.92361661 796.12090616 -179.76098633 797.3684082 C-174.28129629 800.52943449 -168.80220642 803.69149309 -163.32421875 806.85546875 C-149.90293385 814.60577436 -136.46499442 822.32586445 -123 830 C-117.63687089 825.99838466 -117.63687089 825.99838466 -112.33984375 821.91015625 C-93.5970325 807.49495345 -70.23532185 801.87646781 -46.81738281 804.21826172 C-27.42575966 806.79505611 -10.67861397 815.27382988 4 828 C5.66353986 829.33723247 7.32979763 830.67109835 9 832 C9.65145996 831.62415771 10.30291992 831.24831543 10.97412109 830.86108398 C145.5 753.25 145.5 753.25 148.75097656 751.37451172 C150.91447476 750.12628966 153.07788643 748.87791761 155.24121094 747.62939453 C160.70565017 744.47594744 166.17163645 741.32523904 171.640625 738.1796875 C185.4833929 730.21352792 199.27150141 722.1615945 213 714 C212.34 712.35 211.68 710.7 211 709 C33.46 709 -144.08 709 -327 709 Z " fill="#E534AB" transform="translate(570,31)"/>
</svg>
