<?xml version="1.0" encoding="utf-8"?><!DOCTYPE svg PUBLIC "-//W3C//DTD SVG 1.1//EN" "http://www.w3.org/Graphics/SVG/1.1/DTD/svg11.dtd"><svg viewBox="0 0 800 800" xmlns="http://www.w3.org/2000/svg" xmlns:xlink="http://www.w3.org/1999/xlink"><style>:root>svg{display:none}:root>svg:target{display:block}</style><svg fill="none" viewBox="0 0 12 8" id="arrow" xmlns="http://www.w3.org/2000/svg">
    <path d="M1.41.297 6 4.877l4.59-4.58L12 1.707l-6 6-6-6L1.41.297Z" fill="#0C0C0C"/>
</svg><svg viewBox="0 0 512 512" xml:space="preserve" id="arrow-left" xmlns="http://www.w3.org/2000/svg">
    <path fill="#6E83B7" d="m10 256 200 150v-80h156V186H210v-80zM394 186h40v140h-40zM462 186h40v140h-40z"/>
</svg><svg style="shape-rendering:geometricPrecision;text-rendering:geometricPrecision;image-rendering:optimizeQuality;fill-rule:evenodd;clip-rule:evenodd" viewBox="0 0 512 512" id="arrow-up" xmlns="http://www.w3.org/2000/svg">
    <path style="opacity:.994" fill="#2196f3" d="M233.5-.5h44c91.717 11.091 160.217 56.758 205.5 137 15.511 30.687 25.011 63.021 28.5 97v44c-12.482 100.305-64.482 171.805-156 214.5-25.187 10.297-51.187 16.797-78 19.5h-44C133.195 499.018 61.695 447.018 19 355.5c-10.297-25.187-16.797-51.187-19.5-78v-44C11.982 133.195 63.982 61.695 155.5 19c25.187-10.297 51.187-16.797 78-19.5Z"/>
    <path style="opacity:1" fill="#f9f9f9" d="M200.5 393.5c.333-44.338 0-88.672-1-133-.607.124-.94.457-1 1-9.777 12.616-21.777 22.449-36 29.5-26.624 8.129-47.457.629-62.5-22.5-9.868-19.718-8.201-38.385 5-56L235.5 82c13.295-8.662 26.629-8.662 40 0L407 213.5c13.989 20.606 13.989 41.272 0 62-20.135 21.044-42.968 24.544-68.5 10.5a477.018 477.018 0 0 1-26.5-25.5l-1 135c-4.737 27.07-20.571 43.237-47.5 48.5-32.34 1.921-53.173-12.579-62.5-43.5a24.935 24.935 0 0 1-.5-7Z"/>
    <path style="opacity:1" fill="#8dc7f6" d="M198.5 261.5c.06-.543.393-.876 1-1 1 44.328 1.333 88.662 1 133l-2-132Z"/>
</svg><svg viewBox="0 0 378.303 378.303" xml:space="preserve" id="close" xmlns="http://www.w3.org/2000/svg">
    <path style="fill:#ff3501" d="M378.303 28.285 350.018 0 189.151 160.867 28.285 0 0 28.285l160.867 160.866L0 350.018l28.285 28.284 160.866-160.866 160.867 160.866 28.285-28.284-160.867-160.867z"/>
</svg></svg>