<?xml version="1.0" encoding="UTF-8"?>
<!DOCTYPE svg PUBLIC "-//W3C//DTD SVG 1.1//EN" "http://www.w3.org/Graphics/SVG/1.1/DTD/svg11.dtd">
<svg xmlns="http://www.w3.org/2000/svg" version="1.1" width="512px" height="512px" style="shape-rendering:geometricPrecision; text-rendering:geometricPrecision; image-rendering:optimizeQuality; fill-rule:evenodd; clip-rule:evenodd" xmlns:xlink="http://www.w3.org/1999/xlink">
<g><path style="opacity:0.994" fill="#2196f3" d="M 233.5,-0.5 C 248.167,-0.5 262.833,-0.5 277.5,-0.5C 369.217,10.5913 437.717,56.258 483,136.5C 498.511,167.187 508.011,199.521 511.5,233.5C 511.5,248.167 511.5,262.833 511.5,277.5C 499.018,377.805 447.018,449.305 355.5,492C 330.313,502.297 304.313,508.797 277.5,511.5C 262.833,511.5 248.167,511.5 233.5,511.5C 133.195,499.018 61.6947,447.018 19,355.5C 8.70332,330.313 2.20332,304.313 -0.5,277.5C -0.5,262.833 -0.5,248.167 -0.5,233.5C 11.9821,133.195 63.9821,61.6947 155.5,19C 180.687,8.70332 206.687,2.20332 233.5,-0.5 Z"/></g>
<g><path style="opacity:1" fill="#f9f9f9" d="M 200.5,393.5 C 200.833,349.162 200.5,304.828 199.5,260.5C 198.893,260.624 198.56,260.957 198.5,261.5C 188.723,274.116 176.723,283.949 162.5,291C 135.876,299.129 115.043,291.629 100,268.5C 90.132,248.782 91.7987,230.115 105,212.5C 148.5,169 192,125.5 235.5,82C 248.795,73.3383 262.129,73.3383 275.5,82C 319.333,125.833 363.167,169.667 407,213.5C 420.989,234.106 420.989,254.772 407,275.5C 386.865,296.544 364.032,300.044 338.5,286C 329.363,277.864 320.53,269.364 312,260.5C 311.667,305.5 311.333,350.5 311,395.5C 306.263,422.57 290.429,438.737 263.5,444C 231.16,445.921 210.327,431.421 201,400.5C 200.503,398.19 200.337,395.857 200.5,393.5 Z"/></g>
<g><path style="opacity:1" fill="#8dc7f6" d="M 198.5,261.5 C 198.56,260.957 198.893,260.624 199.5,260.5C 200.5,304.828 200.833,349.162 200.5,393.5C 199.833,349.5 199.167,305.5 198.5,261.5 Z"/></g>
</svg>
